<svg width="174" height="25" viewBox="0 0 174 25" fill="none" xmlns="http://www.w3.org/2000/svg">
<g clip-path="url(#clip0_8852_108518)">
<mask id="mask0_8852_108518" style="mask-type:luminance" maskUnits="userSpaceOnUse" x="67" y="4" width="107" height="18">
<path d="M174 4H67V21.7052H174V4Z" fill="white"/>
</mask>
<g mask="url(#mask0_8852_108518)">
<path d="M81.8231 17.6203H83.6277V8.8652H81.8231V17.6203ZM82.7361 5.5089C82.1453 5.5089 81.6727 5.96051 81.6727 6.50962C81.6727 7.07414 82.1453 7.52574 82.7361 7.52574C83.3054 7.52574 83.7834 7.07414 83.7834 6.50962C83.778 5.96051 83.3054 5.5089 82.7361 5.5089ZM89.2883 12.4781C87.806 12.2215 87.4248 11.8263 87.4248 11.3542C87.4248 11.0257 87.6504 10.4304 88.8695 10.4304C89.5892 10.4304 90.3303 10.8102 90.5396 11.4106L92.2475 10.8461C92.0973 10.3021 91.2218 8.74202 88.864 8.74202C86.3345 8.74202 85.3677 10.4869 85.6148 11.8674C85.8404 13.1914 86.9253 13.72 88.6923 14.0639C90.1154 14.3358 90.6687 14.5924 90.7277 15.0081C90.8028 15.5008 90.3303 16.0602 89.111 16.0602C87.8758 16.0602 87.269 15.5162 87.0595 14.9722L85.3516 15.547C85.7867 16.7479 87.1026 17.7794 89.1917 17.7794C91.2808 17.7794 92.7094 16.5272 92.5538 14.8182C92.4409 13.4429 91.3776 12.8425 89.2883 12.4781ZM98.8858 8.74202C97.7096 8.74202 96.759 9.14232 96.093 9.8146V8.8652H94.267V21.577H96.093V16.676C96.759 17.3483 97.7096 17.7486 98.8858 17.7486C101.544 17.7486 103.145 15.7163 103.145 13.2427C103.145 10.7691 101.55 8.74202 98.8858 8.74202ZM98.6817 16.0191C97.0113 16.0191 96.1736 14.7464 96.1736 13.2427C96.1736 11.7391 97.0275 10.4664 98.6817 10.4664C100.314 10.4664 101.174 11.7391 101.174 13.2427C101.174 14.7464 100.331 16.0191 98.6817 16.0191Z" fill="white"/>
<path d="M114.627 8.74202C113.413 8.74202 112.463 9.2706 111.835 10.179C111.244 9.23467 110.277 8.74202 109.004 8.74202C108.113 8.74202 107.409 9.04993 106.856 9.55798V8.86517H105.051V17.6203H106.85V12.7347C106.85 11.1027 107.592 10.4664 108.714 10.4664C109.777 10.4664 110.632 11.1386 110.632 12.8476V17.6254H112.436V12.7398C112.436 11.1078 113.236 10.4715 114.353 10.4715C115.401 10.4715 116.195 11.1438 116.195 12.8527V17.6305H118.022V12.6936C118.027 10.1584 116.792 8.74202 114.627 8.74202ZM123.87 8.72148C121.496 8.72148 120.39 10.2097 120.164 11.3183L121.797 11.6467C122.066 10.7229 122.823 10.3021 123.736 10.2662C124.515 10.2097 125.54 10.5946 125.406 11.4465C125.31 12.0624 124.305 12.1342 123.124 12.4268C121.244 12.8989 119.987 13.4069 119.778 15.1313C119.606 16.5682 120.766 17.9282 122.914 17.7486C124.337 17.6203 125.116 16.9685 125.46 16.5888V17.6254H127.248V11.9341C127.254 9.60931 125.788 8.72148 123.87 8.72148ZM125.465 13.8791C125.465 15.2596 124.096 16.1115 123.167 16.1833C122.157 16.2552 121.819 15.8908 121.76 15.4956C121.7 15.1518 121.797 14.4077 123.43 14.0074C124.644 13.7149 125.465 13.4993 125.465 13.4993V13.8791ZM133.656 8.74202C132.705 8.74202 131.905 9.10638 131.298 9.70681V8.86517H129.493V17.6203H131.298V12.7347C131.298 11.1027 132.189 10.4664 133.312 10.4664C134.375 10.4664 135.229 11.1386 135.229 12.8476V17.6254H137.034V12.6885C137.034 10.1584 135.798 8.74202 133.656 8.74202ZM142.861 8.72148C140.487 8.72148 139.381 10.2097 139.155 11.3183L140.788 11.6467C141.056 10.7229 141.814 10.3021 142.727 10.2662C143.505 10.2097 144.531 10.5946 144.397 11.4465C144.3 12.0624 143.296 12.1342 142.114 12.4268C140.235 12.8989 138.978 13.4069 138.768 15.1313C138.597 16.5682 139.757 17.9282 141.905 17.7486C143.328 17.6203 144.107 16.9685 144.451 16.5888V17.6254H146.239V11.9341C146.239 9.60931 144.778 8.72148 142.861 8.72148ZM144.456 13.8791C144.456 15.2596 143.087 16.1115 142.157 16.1833C141.148 16.2552 140.809 15.8908 140.75 15.4956C140.691 15.1518 140.788 14.4077 142.421 14.0074C143.634 13.7149 144.456 13.4993 144.456 13.4993V13.8791ZM155.068 9.80945C154.402 9.13717 153.452 8.73688 152.276 8.73688C149.617 8.73688 148.017 10.7691 148.017 13.2427C148.017 15.7163 149.612 17.7486 152.276 17.7486C153.452 17.7486 154.402 17.3483 155.068 16.676V16.9326C155.068 18.9649 153.93 19.981 152.426 19.981C151.459 19.981 150.563 19.5088 150.106 18.8006L148.586 19.7449C149.365 20.9253 150.885 21.7053 152.48 21.7053C154.816 21.7053 156.889 20.4172 156.889 16.7684V8.86517H155.063V9.80945H155.068ZM152.501 16.0191C150.847 16.0191 149.993 14.7464 149.993 13.2427C149.993 11.7391 150.831 10.4664 152.501 10.4664C154.155 10.4664 154.993 11.7391 154.993 13.2427C154.993 14.7464 154.134 16.0191 152.501 16.0191ZM163.167 8.74202C160.509 8.74202 158.758 10.7743 158.758 13.2479C158.758 15.7215 160.563 17.7537 163.227 17.7537C164.918 17.7537 166.229 16.9377 166.97 15.7009L165.316 14.9363C164.897 15.588 164.193 16.0242 163.227 16.0242C161.895 16.0242 161.062 15.2083 160.794 14.1152H167.179C167.238 13.8226 167.255 13.5352 167.255 13.2427C167.255 10.7743 165.831 8.74202 163.167 8.74202ZM160.756 12.4781C161.003 11.3336 161.803 10.4612 163.167 10.4612C164.532 10.4612 165.203 11.3336 165.391 12.4781H160.756ZM173.275 8.72148C172.324 8.72148 171.524 9.08584 170.917 9.6863V8.86517H169.113V17.6203H170.917V12.7347C170.917 11.1027 171.83 10.4664 172.931 10.4664C173.2 10.4664 173.425 10.5023 173.651 10.5946L173.995 8.79846C173.769 8.75741 173.522 8.72148 173.275 8.72148Z" fill="white"/>
<path d="M73.246 8.87024H69.8571C69.7014 8.87024 69.5671 8.96774 69.5188 9.11145L67.016 17.1891C66.9516 17.4047 67.1181 17.6202 67.3544 17.6202H70.7433C70.899 17.6202 71.0333 17.5227 71.0816 17.379L73.5898 9.29619C73.6488 9.08577 73.4823 8.87024 73.246 8.87024ZM78.5469 8.87024H75.158C75.0022 8.87024 74.868 8.96774 74.8196 9.11145L72.3169 17.1891C72.2524 17.4047 72.4189 17.6202 72.6553 17.6202H76.0441C76.1999 17.6202 76.3342 17.5227 76.3825 17.379L78.8906 9.29619C78.9497 9.08577 78.7832 8.87024 78.5469 8.87024Z" fill="#749EFF"/>
</g>
<path d="M63 4H64L58 22H57L63 4Z" fill="#727272"/>
<path fill-rule="evenodd" clip-rule="evenodd" d="M10.3526 3.09498C10.1447 2.80018 9.7917 2.61757 9.41348 2.64759L2.67195 3.17488C2.10837 3.21875 1.69278 3.7183 1.74869 4.2849L1.84282 5.24179C1.89832 5.80798 1.50657 6.30546 0.971357 6.34768L0 6.42466L1.2715 19.3566L2.43619 7.24139L10.3526 3.09498Z" fill="white"/>
<path fill-rule="evenodd" clip-rule="evenodd" d="M18.7642 0L3.52546 7.98167L1.8894 25L31.0544 22.6947L32.6888 5.67719L18.7642 0ZM21.2321 14.0827C21.2321 11.5448 23.1436 9.93272 25.4735 9.93272C27.1342 9.93272 28.1738 10.7746 28.7711 11.7256L27.3607 12.4951C27.0031 11.9297 26.3224 11.4483 25.4735 11.4483C24.0274 11.4483 22.9763 12.5671 22.9763 14.0827C22.9763 15.5983 24.0278 16.717 25.4735 16.717C26.1785 16.717 26.8481 16.4037 27.17 16.1033V15.2469H25.0674V13.7346H28.8661V16.7295C28.0538 17.6433 26.9192 18.2451 25.4735 18.2451C23.144 18.2447 21.2321 16.609 21.2321 14.0827ZM9.9038 15.2374L11.6414 18.0882H13.5886L11.625 15.0334C12.4849 14.8285 13.1973 14.0707 13.1973 12.6515C13.1973 11.1603 12.1815 10.0651 10.5212 10.0651H6.79365V18.0882H8.49014V15.2374H9.9038ZM10.2709 11.5688C10.9512 11.5688 11.4655 11.9777 11.4655 12.6511C11.4655 13.3253 10.9512 13.7338 10.2709 13.7334H8.49055V11.5688H10.2709ZM14.6477 10.0652V18.0883V18.0887H20.2872V16.585H16.3442V14.7685H19.8605V13.2649H16.3442V11.5692H20.2872V10.0652H14.6477Z" fill="white"/>
<path d="M33.001 17.2459C33.001 16.7174 33.4433 16.2717 33.9686 16.2717C34.4952 16.2717 34.9363 16.7166 34.9363 17.2459C34.9363 17.7753 34.4952 18.2202 33.9686 18.2202C33.4433 18.2206 33.001 17.7757 33.001 17.2459Z" fill="white"/>
<path d="M41.1335 18.0882L39.2253 15.2374H37.9826V18.0882H36.2861V10.0651H40.0137C41.674 10.0651 42.6902 11.1602 42.6902 12.6514C42.6902 14.0706 41.806 14.8284 40.946 15.0333L43.0807 18.0882H41.1335ZM40.9583 12.651C40.9583 11.9776 40.4437 11.5687 39.763 11.5687H37.9826V13.7333H39.7625C40.4437 13.7337 40.9583 13.3252 40.9583 12.651Z" fill="white"/>
<path d="M43.9716 14.8884V10.0651H45.6923V14.828C45.6923 15.9476 46.1658 16.717 47.3966 16.717C48.6265 16.717 49.0881 15.9476 49.0881 14.828V10.0651H50.8216V14.8764C50.8216 16.8734 49.8207 18.233 47.3966 18.233C44.9705 18.2322 43.9716 16.8614 43.9716 14.8884Z" fill="white"/>
</g>
<defs>
<clipPath id="clip0_8852_108518">
<rect width="174" height="25" fill="white"/>
</clipPath>
</defs>
</svg>
